<svg xmlns="http://www.w3.org/2000/svg" xmlns:xlink="http://www.w3.org/1999/xlink" width="1024" height="1024" viewBox="0 0 1024 1024">
  <defs>
    <clipPath id="clip-custom_1">
      <rect width="1024" height="1024"/>
    </clipPath>
  </defs>
  <g id="custom_1" data-name="custom – 1" clip-path="url(#clip-custom_1)">
    <rect width="1024" height="1024" fill="#fff"/>
    <rect id="Rectangle_1" data-name="Rectangle 1" width="1024" height="1024" fill="#0081b1"/>
    <g id="metronome" transform="translate(226 128)">
      <path id="Path_1" data-name="Path 1" d="M630.337,288.84a24.744,24.744,0,0,0-34.975-.855l-12.134,11.555a24.586,24.586,0,0,0-25.836,5.183l-20.365,19.4a24.716,24.716,0,0,0-6.444,25.554l-28.616,27.251L459.38,89.713a24.739,24.739,0,0,0-12.513-18.027l-124.23-68.6a24.739,24.739,0,0,0-23.918,0L174.49,71.688a24.746,24.746,0,0,0-12.513,18.027L65.687,739.1a25.334,25.334,0,0,0,5.739,20.055A24.994,24.994,0,0,0,90.157,768H531.2a25.156,25.156,0,0,0,24.469-28.768L510.846,436.859,564.7,385.537a24.694,24.694,0,0,0,25.839-5.214l20.368-19.4a24.6,24.6,0,0,0,6.441-25.554l12.134-11.556A24.743,24.743,0,0,0,630.337,288.84ZM467.018,478.531,477.9,551.952H389.921ZM310.679,53l70.306,38.826H240.374ZM204.346,141.3H417.011l41.233,277.365-73.972,70.546V261.963a25.153,25.153,0,0,0-24.951-25.008H262.034c-13.662,0-24.541,11.346-24.541,25.008v289.99H143.453ZM334.8,286.429V551.951H286.97V286.429ZM118.834,718.523l17.284-117.094H485.24l17.283,117.094Z" transform="translate(-65.419)" fill="#fff"/>
    </g>
  </g>
</svg>
