<?xml version="1.0" encoding="iso-8859-1"?>
<!-- Generator: Adobe Illustrator 19.0.0, SVG Export Plug-In . SVG Version: 6.00 Build 0)  -->
<svg version="1.1" id="Layer_1" xmlns="http://www.w3.org/2000/svg" xmlns:xlink="http://www.w3.org/1999/xlink" x="0px" y="0px"
	 viewBox="0 0 512 512" style="enable-background:new 0 0 512 512;" xml:space="preserve">
	<g>
		<path d="M442.032,192.56c-6.281-6.595-16.721-6.849-23.317-0.57l-8.089,7.703c-1.728-0.656-3.563-1.042-5.448-1.089
			c-4.381-0.109-8.609,1.528-11.776,4.544l-13.577,12.931c-4.748,4.521-6.19,11.192-4.296,17.036l-19.077,18.167L328.06,59.809
			c-0.755-5.087-3.838-9.531-8.342-12.018l-82.82-45.736c-4.961-2.74-10.984-2.74-15.945,0l-82.82,45.737
			c-4.503,2.487-7.586,6.931-8.342,12.018L65.598,492.733c-0.704,4.744,0.694,9.738,3.826,13.37
			c3.132,3.632,7.691,5.898,12.487,5.898h294.03c4.796,0,9.355-2.266,12.487-5.898c3.134-3.632,4.53-8.535,3.826-13.281
			L362.371,291.24l35.906-34.215c1.881,0.714,3.865,1.078,5.855,1.078c4.086,0,8.178-1.514,11.371-4.554l13.579-12.932
			c3.169-3.017,5.008-7.17,5.114-11.542c0.046-1.883-0.25-3.736-0.82-5.494l8.089-7.704
			C448.058,209.595,448.313,199.156,442.032,192.56z M333.152,319.021l7.258,48.948h-58.656L333.152,319.021z M228.926,35.332
			l46.871,25.884h-93.741L228.926,35.332z M158.037,94.2h141.777l27.489,184.91l-49.315,47.031V174.642
			c0-9.108-7.526-16.672-16.634-16.672h-64.858c-9.108,0-16.361,7.564-16.361,16.672v193.327h-62.693L158.037,94.2z
			 M245.005,190.953v177.015H213.12V190.953H245.005z M101.029,479.016l11.523-78.063H345.3l11.522,78.063H101.029z"/>
	</g>
</svg>
